<svg width="8" height="16" viewBox="0 0 8 16" fill="none" xmlns="http://www.w3.org/2000/svg">
    <path d="M7 4.50098V11.554C7 12.947 5.97999 14.187 4.59399 14.321C2.99999 14.474 1.66699 13.227 1.66699 11.667V3.42701C1.66699 2.55401 2.294 1.76102 3.16 1.67402C4.16 1.57402 5 2.35399 5 3.33399V10.334C5 10.701 4.70002 11.001 4.33401 11.001C3.96701 11.001 3.66699 10.701 3.66699 10.334V4.50098C3.66699 4.22698 3.43999 4.00098 3.16699 4.00098C2.89399 4.00098 2.66699 4.22698 2.66699 4.50098V10.241C2.66699 11.114 3.294 11.907 4.16 11.994C5.16 12.094 6 11.314 6 10.334V3.44703C6 2.05403 4.97999 0.814035 3.59399 0.681035C2.00699 0.527035 0.666992 1.77399 0.666992 3.33399V11.514C0.666992 13.427 2.067 15.141 3.974 15.321C6.167 15.521 8 13.814 8 11.667V4.50098C8 4.22698 7.774 4.00098 7.5 4.00098C7.227 4.00098 7 4.22698 7 4.50098Z" fill="#CFD8DC"/>
</svg>
