<svg width="21" height="19" viewBox="0 0 21 19" fill="none" xmlns="http://www.w3.org/2000/svg">
<path d="M6.16908 15.8281H6.15164L6.13845 15.8395L3.18813 18.3867L3.18812 18.3867L3.18709 18.3876L3.17653 18.3973C2.84896 18.6746 2.43392 18.8272 2.00472 18.8281C1.73646 18.8275 1.47159 18.7682 1.22864 18.6544L1.2283 18.6543C0.911899 18.5092 0.643994 18.2761 0.456643 17.9827C0.269292 17.6894 0.170431 17.3483 0.171891 17.0002V17V2C0.171891 1.51515 0.364497 1.05016 0.707337 0.70732C1.05018 0.36448 1.51517 0.171875 2.00002 0.171875H18.5C18.9849 0.171875 19.4499 0.36448 19.7927 0.70732C20.1355 1.05016 20.3281 1.51515 20.3281 2V14C20.3281 14.4848 20.1355 14.9498 19.7927 15.2927C19.4499 15.6355 18.9849 15.8281 18.5 15.8281H6.16908ZM18.1719 2.375V2.32812H18.125H2.37502H2.32814V2.375V16.1778V16.2802L2.40565 16.2133L5.04565 13.9333L5.0457 13.9333C5.2412 13.764 5.49131 13.6712 5.74989 13.6719H5.75002H18.125H18.1719V13.625V2.375ZM6.54689 8C6.54689 7.7126 6.63212 7.43165 6.79179 7.19269C6.95146 6.95372 7.17841 6.76747 7.44393 6.65749C7.70945 6.5475 8.00163 6.51873 8.28351 6.5748C8.56538 6.63087 8.82431 6.76926 9.02753 6.97249C9.23075 7.17571 9.36915 7.43463 9.42522 7.71651C9.48129 7.99839 9.45251 8.29056 9.34253 8.55609C9.23255 8.82161 9.0463 9.04856 8.80733 9.20823C8.56836 9.3679 8.28742 9.45312 8.00002 9.45312C7.61462 9.45312 7.24502 9.30003 6.9725 9.02751C6.69999 8.755 6.54689 8.38539 6.54689 8ZM13.3073 9.20823C13.0684 9.3679 12.7874 9.45312 12.5 9.45312C12.1146 9.45312 11.745 9.30003 11.4725 9.02751C11.2 8.755 11.0469 8.38539 11.0469 8C11.0469 7.7126 11.1321 7.43165 11.2918 7.19269C11.4515 6.95372 11.6784 6.76747 11.9439 6.65749C12.2095 6.5475 12.5016 6.51873 12.7835 6.5748C13.0654 6.63087 13.3243 6.76926 13.5275 6.97249C13.7308 7.17571 13.8692 7.43463 13.9252 7.71651C13.9813 7.99839 13.9525 8.29056 13.8425 8.55609C13.7325 8.82161 13.5463 9.04856 13.3073 9.20823Z" fill="white" stroke="white" stroke-width="0.09375"/>
</svg>
