<svg width="21" height="22" viewBox="0 0 21 22" fill="none" xmlns="http://www.w3.org/2000/svg">
<path d="M20.5128 19.2372L20.5125 19.2375L20.5179 19.2416L20.5189 19.2424C20.6181 19.3422 20.6969 19.4604 20.7507 19.5904C20.805 19.7215 20.8329 19.8619 20.8329 20.0038C20.8329 20.1456 20.805 20.286 20.7507 20.4171C20.6964 20.5481 20.6169 20.6672 20.5166 20.7675C20.4163 20.8678 20.2972 20.9473 20.1662 21.0016C20.0352 21.0559 19.8947 21.0838 19.7529 21.0838C19.611 21.0838 19.4706 21.0559 19.3395 21.0016C19.2085 20.9473 19.0894 20.8678 18.9891 20.7675L14.5332 16.3106L14.5041 16.2815L14.4715 16.3066C12.7414 17.6342 10.571 18.2541 8.40072 18.0404C6.23039 17.8267 4.22261 16.7954 2.78466 15.1558C1.34672 13.5162 0.586281 11.391 0.657616 9.21139C0.728951 7.03173 1.62671 4.96082 3.16879 3.41874C4.71086 1.87667 6.78178 0.978905 8.96144 0.90757C11.1411 0.836235 13.2663 1.59667 14.9059 3.03462C16.5455 4.47256 17.5767 6.48034 17.7904 8.65067C18.0041 10.821 17.3843 12.9914 16.0566 14.7215L16.0316 14.7541L16.0607 14.7831L20.5128 19.2372ZM2.82818 9.50001V9.50006C2.82993 11.2027 3.50708 12.8351 4.71102 14.039C5.91497 15.243 7.54737 15.9201 9.25001 15.9219H9.25006C10.5202 15.9219 11.7618 15.5452 12.8179 14.8396C13.8739 14.134 14.697 13.131 15.1831 11.9576C15.6692 10.7841 15.7963 9.49288 15.5485 8.24716C15.3007 7.00144 14.6891 5.85717 13.791 4.95906C12.8929 4.06094 11.7486 3.44932 10.5029 3.20153C9.25718 2.95374 7.96595 3.08091 6.79251 3.56697C5.61907 4.05303 4.61611 4.87613 3.91046 5.93221C3.20482 6.98828 2.82818 8.22988 2.82818 9.50001Z" fill="white" stroke="white" stroke-width="0.09375"/>
</svg>
