<svg width="22" height="21" viewBox="0 0 22 21" fill="none" xmlns="http://www.w3.org/2000/svg">
<path d="M15.2469 13.6597L15.1806 13.7095L15.2574 13.7406C17.6532 14.7132 19.652 16.4637 20.9321 18.7101C21.064 18.9568 21.0948 19.245 21.0181 19.514C20.9414 19.7831 20.763 20.0119 20.5207 20.1519C20.2783 20.2919 19.991 20.3322 19.7195 20.2643C19.4483 20.1964 19.214 20.0257 19.0662 19.7884C17.3592 16.8393 14.3441 15.0781 11 15.0781C7.65574 15.0781 4.64046 16.8387 2.93353 19.789L2.93351 19.789L2.93278 19.7904C2.86458 19.9178 2.77145 20.0302 2.65894 20.1209C2.54643 20.2117 2.41682 20.2788 2.27783 20.3185C2.13884 20.3581 1.99331 20.3694 1.84987 20.3516C1.70644 20.3339 1.56803 20.2875 1.44289 20.2152C1.31775 20.1429 1.20842 20.0461 1.12141 19.9307C1.03439 19.8153 0.97147 19.6836 0.936377 19.5434C0.901285 19.4032 0.89474 19.2574 0.917132 19.1146C0.939524 18.9718 0.990395 18.835 1.06672 18.7123L1.06675 18.7123L1.06764 18.7107C2.34779 16.464 4.34673 14.7133 6.74267 13.7406L6.81949 13.7095L6.75317 13.6597C5.56471 12.7684 4.68683 11.5257 4.24388 10.1077C3.80093 8.68967 3.81536 7.16825 4.28514 5.75891C4.75492 4.34957 5.65623 3.12376 6.86139 2.25513C8.06655 1.3865 9.51447 0.919083 11 0.919083C12.4856 0.919083 13.9335 1.3865 15.1387 2.25513C16.3439 3.12376 17.2452 4.34957 17.7149 5.75891C18.1847 7.16825 18.1992 8.68967 17.7562 10.1077C17.3133 11.5257 16.4354 12.7684 15.2469 13.6597ZM6.07817 8.00002V8.00007C6.07967 9.30496 6.5987 10.556 7.5214 11.4787C8.44409 12.4014 9.6951 12.9204 11 12.9219H11C11.9735 12.9219 12.9251 12.6332 13.7345 12.0924C14.5439 11.5516 15.1747 10.7829 15.5473 9.88354C15.9198 8.98418 16.0173 7.99456 15.8273 7.03981C15.6374 6.08506 15.1687 5.20807 14.4803 4.51973C13.792 3.83139 12.915 3.36263 11.9603 3.17272C11.0055 2.98281 10.0159 3.08028 9.11652 3.4528C8.21717 3.82533 7.44847 4.45617 6.90765 5.26557C6.36683 6.07497 6.07817 7.02657 6.07817 8.00002Z" fill="white" stroke="white" stroke-width="0.09375"/>
</svg>
