<svg width="6" height="6" viewBox="0 0 6 6" fill="none" xmlns="http://www.w3.org/2000/svg">
<path fill-rule="evenodd" clip-rule="evenodd" d="M3.06357 2.49625V0.726202C3.06357 0.530688 3.22207 0.372192 3.41758 0.372192C3.61309 0.372192 3.77159 0.530688 3.77159 0.726202V2.49625H5.54164C5.73715 2.49625 5.89564 2.65474 5.89564 2.85026C5.89564 3.04577 5.73715 3.20427 5.54164 3.20427H3.77159V4.97431C3.77159 5.16983 3.61309 5.32832 3.41758 5.32832C3.22207 5.32832 3.06357 5.16983 3.06357 4.97431V3.20427H1.29352C1.09801 3.20427 0.939514 3.04577 0.939514 2.85026C0.939514 2.65474 1.09801 2.49625 1.29352 2.49625H3.06357Z" fill="#2D2E32"/>
</svg>
